<?xml version="1.0" standalone="no"?>
<!DOCTYPE svg PUBLIC "-//W3C//DTD SVG 20010904//EN"
 "http://www.w3.org/TR/2001/REC-SVG-20010904/DTD/svg10.dtd">
<svg version="1.0" xmlns="http://www.w3.org/2000/svg"
 width="400.000000pt" height="118.000000pt" viewBox="0 0 400.000000 118.000000"
 preserveAspectRatio="xMidYMid meet">

<g transform="translate(0.000000,118.000000) scale(0.100000,-0.100000)"
fill="#000000" stroke="none">
<path d="M664 1090 c-371 -59 -615 -252 -617 -490 -3 -255 254 -453 653 -505
103 -13 128 -13 228 0 247 32 407 101 535 228 217 217 138 512 -181 672 -97
49 -180 73 -322 95 -147 23 -152 23 -296 0z m366 -24 c240 -46 431 -168 507
-325 24 -49 28 -68 28 -146 0 -116 -28 -179 -117 -269 -108 -107 -272 -182
-464 -211 -125 -19 -213 -19 -338 0 -191 29 -356 104 -462 209 -147 148 -165
330 -49 488 95 130 311 237 540 267 88 12 257 6 355 -13z"/>
<path d="M721 999 c1 -36 2 -40 9 -19 6 22 8 23 15 8 4 -10 11 -18 16 -18 12
0 11 42 -2 60 -8 12 -9 9 -4 -10 l6 -25 -20 24 -21 23 1 -43z"/>
<path d="M788 1035 c-2 -3 -3 -18 0 -35 3 -23 9 -30 26 -29 17 1 17 2 4 6 -10
2 -18 8 -18 13 0 5 8 11 18 13 16 4 16 5 0 6 -10 0 -18 5 -18 10 0 5 8 12 18
14 14 4 13 5 -4 6 -11 0 -23 -1 -26 -4z"/>
<path d="M847 1013 c-7 -35 -1 -43 26 -42 17 1 18 2 5 6 -10 2 -18 8 -18 13 0
5 8 11 18 13 16 4 16 5 0 6 -10 0 -18 5 -18 10 0 5 8 12 18 14 13 4 13 5 -4 6
-16 1 -23 -6 -27 -26z"/>
<path d="M907 1008 c-5 -37 0 -49 12 -29 7 11 11 10 21 -5 11 -19 11 -19 6 0
-4 10 -1 25 6 33 9 11 9 16 -3 24 -25 16 -37 10 -42 -23z m35 7 c0 -5 -5 -11
-11 -13 -6 -2 -11 4 -11 13 0 9 5 15 11 13 6 -2 11 -8 11 -13z"/>
<path d="M627 1023 c-12 -11 -8 -50 7 -62 16 -14 46 -4 46 14 0 8 -5 17 -12
21 -8 5 -9 2 -5 -10 5 -13 2 -17 -11 -14 -23 4 -23 43 1 42 9 -1 17 2 17 7 0
10 -34 12 -43 2z"/>
<path d="M690 1001 c0 -17 4 -32 8 -35 4 -2 6 11 4 30 -5 42 -12 45 -12 5z"/>
<path d="M970 995 c0 -19 2 -35 4 -35 2 0 6 16 8 35 2 19 0 35 -4 35 -4 0 -8
-16 -8 -35z"/>
<path d="M591 1004 c0 -11 3 -14 6 -6 3 7 2 16 -1 19 -3 4 -6 -2 -5 -13z"/>
<path d="M1000 999 c0 -11 5 -17 10 -14 6 3 10 -3 10 -14 0 -28 16 -27 24 2 9
33 5 56 -4 27 l-8 -25 -7 23 c-9 28 -25 29 -25 1z"/>
<path d="M554 994 c3 -9 6 -24 6 -35 0 -10 4 -19 9 -19 5 0 7 10 4 23 -4 20
-3 21 10 5 17 -22 27 -23 27 -3 0 8 -7 15 -15 15 -9 0 -18 7 -21 15 -4 8 -11
15 -16 15 -6 0 -7 -7 -4 -16z"/>
<path d="M1071 996 c-19 -22 -10 -61 14 -61 11 0 21 8 23 18 2 9 -1 17 -7 17
-6 0 -8 -7 -4 -16 4 -12 2 -15 -8 -12 -17 6 -22 28 -10 47 8 13 12 13 27 0 15
-12 17 -12 12 1 -7 21 -32 24 -47 6z"/>
<path d="M496 991 c-7 -10 13 -71 22 -71 4 0 14 5 22 10 12 8 11 10 -7 10 -27
0 -31 17 -5 23 12 3 9 5 -8 6 -24 2 -24 2 -6 16 17 13 17 15 4 15 -9 0 -19 -4
-22 -9z"/>
<path d="M1158 955 c-14 -32 6 -61 32 -45 12 8 11 10 -7 10 -26 0 -27 3 -12
31 9 17 13 18 26 7 14 -11 15 -11 11 2 -8 26 -37 23 -50 -5z"/>
<path d="M406 961 c-3 -5 1 -24 9 -42 13 -31 14 -32 15 -9 0 19 3 21 12 12 7
-7 17 -12 22 -12 6 0 5 5 -2 12 -7 7 -12 20 -12 30 0 19 -34 26 -44 9z m34 -9
c0 -13 -12 -22 -22 -16 -10 6 -1 24 13 24 5 0 9 -4 9 -8z"/>
<path d="M375 935 c16 -45 17 -55 6 -55 -6 0 -17 11 -23 25 -6 14 -15 25 -20
25 -5 0 -1 -13 9 -30 19 -33 53 -41 53 -12 -1 9 -8 28 -16 42 -10 17 -13 18
-9 5z"/>
<path d="M1220 929 c-15 -27 -6 -49 19 -49 24 0 44 32 35 54 -9 23 -41 20 -54
-5z m40 -8 c0 -22 -15 -35 -30 -26 -7 4 -7 13 0 26 14 25 30 25 30 0z"/>
<path d="M695 930 c-291 -41 -485 -185 -485 -360 0 -141 111 -249 330 -322 92
-31 100 -32 270 -32 163 0 181 2 265 28 164 50 282 132 324 226 103 226 -156
447 -544 464 -55 3 -127 1 -160 -4z m365 -40 c102 -29 186 -72 244 -125 42
-37 47 -46 36 -60 -7 -8 -17 -15 -22 -15 -6 0 -5 7 2 15 7 9 10 18 6 22 -3 3
-6 1 -6 -5 0 -7 -12 -12 -27 -12 -26 0 -26 -1 -7 -15 10 -8 15 -15 9 -14 -21
3 -33 -2 -55 -21 -26 -23 -46 -26 -53 -7 -2 6 -7 10 -10 7 -3 -3 0 -13 7 -22
14 -19 79 -25 132 -13 26 6 34 3 48 -16 9 -13 16 -18 16 -12 0 7 -5 15 -10 18
-6 4 -9 14 -8 22 2 9 -3 18 -11 21 -8 2 -11 0 -7 -6 3 -6 -7 -10 -28 -10 -19
0 -49 -3 -68 -6 -18 -3 -27 -3 -19 0 7 4 21 14 31 24 10 10 28 17 41 16 13 -1
30 6 37 16 19 26 27 22 45 -19 25 -60 29 -82 22 -119 -4 -25 -11 -34 -25 -34
-11 0 -20 -5 -20 -11 0 -6 -8 -9 -19 -6 -14 3 -17 0 -14 -14 5 -17 -1 -19 -45
-19 -31 0 -52 5 -54 12 -3 7 -7 4 -10 -7 -4 -18 -1 -20 51 -16 43 2 62 9 80
27 30 30 44 31 35 2 -28 -92 -167 -187 -333 -228 -276 -69 -623 -1 -751 148
-43 49 -80 129 -80 172 1 78 70 174 169 234 62 38 180 81 263 95 91 17 322 6
408 -19z"/>
<path d="M945 790 c-3 -5 -1 -10 4 -10 6 0 11 5 11 10 0 6 -2 10 -4 10 -3 0
-8 -4 -11 -10z"/>
<path d="M912 749 c2 -7 10 -15 17 -17 8 -3 12 1 9 9 -2 7 -10 15 -17 17 -8 3
-12 -1 -9 -9z"/>
<path d="M962 751 c-11 -6 -9 -9 5 -13 12 -3 20 0 20 8 0 16 -6 17 -25 5z"/>
<path d="M1262 748 c5 -15 48 -24 48 -10 0 6 -10 8 -22 5 -19 -4 -20 -3 -8 6
13 9 12 11 -3 11 -11 0 -17 -6 -15 -12z"/>
<path d="M1215 738 c3 -8 1 -26 -4 -41 -8 -21 -7 -25 4 -20 8 3 12 9 9 15 -3
5 2 19 12 31 11 12 15 19 10 15 -5 -4 -15 -3 -23 4 -10 8 -12 8 -8 -4z"/>
<path d="M479 702 c-23 -26 -23 -26 -1 -8 23 20 23 20 48 -6 23 -22 24 -28 13
-47 -15 -22 -39 -29 -39 -10 0 8 -5 7 -16 -2 -12 -10 -17 -10 -23 0 -6 10 -10
9 -15 -4 -3 -10 -12 -15 -21 -11 -8 3 -21 3 -28 0 -16 -6 -20 -51 -6 -72 8
-14 9 -13 4 6 -9 32 3 65 22 58 8 -3 20 -3 26 1 24 15 55 12 52 -5 -1 -9 0
-11 2 -4 6 15 33 16 33 1 0 -7 -8 -18 -17 -26 -17 -13 -17 -14 2 -5 14 8 22 6
30 -5 9 -12 11 -11 11 6 0 11 -3 18 -7 15 -14 -8 -16 36 -3 53 12 17 13 16 15
-7 1 -18 3 -20 6 -7 4 16 -37 90 -57 102 -4 2 -18 -8 -31 -23z"/>
<path d="M887 713 c-21 -20 -3 -28 63 -25 39 2 68 7 65 12 -3 5 1 11 7 13 7 3
0 4 -17 2 -16 -2 -47 -6 -68 -9 -22 -3 -35 -1 -32 5 7 10 -8 12 -18 2z"/>
<path d="M650 678 c15 -18 12 -28 -10 -28 -11 0 -20 5 -20 11 0 5 -5 7 -12 3
-8 -5 -2 -12 17 -20 25 -10 31 -10 39 3 5 10 3 20 -8 29 -9 8 -11 9 -6 2z"/>
<path d="M852 657 c-7 -8 -7 -17 2 -29 12 -16 13 -15 12 12 -1 35 0 34 -14 17z"/>
<path d="M1000 660 l-55 -7 47 -1 c26 -1 48 -7 50 -14 3 -7 7 -2 10 10 4 12 5
21 5 20 -1 -1 -27 -4 -57 -8z"/>
<path d="M878 643 c7 -3 16 -2 19 1 4 3 -2 6 -13 5 -11 0 -14 -3 -6 -6z"/>
<path d="M1070 623 c8 -2 22 -7 30 -10 8 -4 21 -5 28 -4 18 3 15 -7 -18 -47
-28 -35 -33 -37 -76 -33 -35 2 -48 8 -51 22 -6 20 -18 25 -27 11 -15 -25 107
-62 130 -39 4 4 13 2 21 -4 8 -8 13 -8 13 -1 0 6 -5 12 -12 14 -7 3 6 23 30
48 24 23 40 45 37 48 -2 3 -10 0 -18 -6 -8 -7 -18 -7 -27 -2 -8 6 -28 9 -45 9
-16 0 -23 -3 -15 -6z"/>
<path d="M668 608 c6 -6 18 -8 28 -6 14 3 12 5 -9 10 -19 3 -25 2 -19 -4z"/>
<path d="M913 609 c7 -4 28 -4 47 1 33 7 33 8 -12 7 -26 -1 -42 -5 -35 -8z"/>
<path d="M760 602 c-19 -2 -39 -9 -45 -16 -5 -7 -17 -15 -25 -19 -10 -4 -8 -6
8 -6 13 -1 22 5 22 14 0 12 15 15 75 15 60 0 75 -3 75 -15 0 -18 55 -21 66 -4
5 8 -1 10 -19 5 -18 -4 -29 -1 -35 9 -8 16 -56 23 -122 17z"/>
<path d="M1023 603 c-12 -2 -24 -11 -27 -20 -5 -12 -4 -13 7 -5 7 7 31 16 53
21 39 9 11 13 -33 4z"/>
<path d="M260 574 c0 -3 8 -13 17 -22 16 -16 16 -16 10 1 -8 22 25 24 47 2 18
-19 26 -19 26 -1 0 7 -14 16 -31 20 -39 8 -69 8 -69 0z"/>
<path d="M605 549 c-4 -6 -5 -12 -2 -15 2 -3 7 2 10 11 7 17 1 20 -8 4z"/>
<path d="M640 551 c0 -5 5 -13 10 -16 6 -3 10 -2 10 4 0 5 -4 13 -10 16 -5 3
-10 2 -10 -4z"/>
<path d="M253 514 c-8 -21 -2 -23 25 -9 23 12 23 12 2 18 -13 3 -23 0 -27 -9z"/>
<path d="M350 520 c-8 -5 -12 -11 -10 -14 3 -2 14 2 24 10 22 15 10 19 -14 4z"/>
<path d="M1179 513 c9 -18 8 -22 -7 -26 -13 -4 -12 -5 5 -6 12 0 25 4 28 9 3
6 16 10 28 11 15 0 17 2 7 6 -8 3 -18 11 -22 17 -5 7 -8 4 -8 -6 0 -10 -3 -18
-6 -18 -4 0 -13 8 -21 18 -13 15 -13 15 -4 -5z"/>
<path d="M595 510 c-3 -5 -1 -10 4 -10 6 0 11 5 11 10 0 6 -2 10 -4 10 -3 0
-8 -4 -11 -10z"/>
<path d="M630 505 c0 -9 -10 -20 -22 -25 -19 -7 -14 -9 25 -9 45 -1 47 0 46
27 -2 23 -2 24 -6 5 -3 -15 -12 -23 -24 -23 -17 0 -18 3 -9 20 7 14 7 20 0 20
-5 0 -10 -7 -10 -15z"/>
<path d="M920 506 c0 -10 28 -13 41 -5 10 6 7 9 -13 9 -16 0 -28 -2 -28 -4z"/>
<path d="M1281 494 c0 -11 3 -14 6 -6 3 7 2 16 -1 19 -3 4 -6 -2 -5 -13z"/>
<path d="M395 490 c-9 -15 4 -30 23 -29 15 1 15 2 0 6 -43 11 -11 22 70 26
l87 3 -87 2 c-49 1 -89 -2 -93 -8z"/>
<path d="M1096 491 c8 -8 43 -8 38 0 -2 4 -13 7 -24 6 -10 -1 -17 -3 -14 -6z"/>
<path d="M954 479 c-3 -5 9 -9 25 -9 17 0 31 2 31 4 0 8 -51 13 -56 5z"/>
<path d="M750 459 c-6 -11 -9 -30 -7 -42 4 -19 4 -19 6 4 1 34 23 51 58 47 23
-2 29 -9 34 -38 6 -35 6 -35 8 -4 1 38 -15 54 -56 54 -22 0 -36 -6 -43 -21z"/>
<path d="M501 453 c-8 -15 -11 -15 -28 -3 -17 13 -17 13 0 -6 17 -18 19 -18
31 -1 8 10 26 17 42 16 25 0 26 -2 9 -9 -18 -8 -17 -9 7 -9 20 -1 26 3 22 14
-9 21 -70 20 -83 -2z"/>
<path d="M1130 460 c-11 -7 -2 -10 29 -10 48 0 51 4 11 13 -14 3 -32 2 -40 -3z"/>
<path d="M1010 449 c0 -5 9 -9 20 -9 11 0 20 2 20 4 0 2 -9 6 -20 9 -11 3 -20
1 -20 -4z"/>
<path d="M355 440 l-20 -9 20 0 c11 0 27 4 35 9 13 9 13 10 0 9 -8 0 -24 -4
-35 -9z"/>
<path d="M1270 430 c-12 -8 -10 -10 8 -10 13 0 20 4 17 10 -7 12 -6 12 -25 0z"/>
<path d="M392 402 c-11 -25 -11 -25 4 -10 9 9 15 21 13 27 -2 6 -10 -2 -17
-17z"/>
<path d="M521 413 c-1 -20 -7 -23 -39 -23 -37 0 -62 -14 -62 -34 0 -5 6 -2 13
7 7 10 30 17 58 19 43 3 45 4 38 28 -7 24 -7 24 -8 3z"/>
<path d="M1063 395 c0 -22 2 -30 4 -17 2 12 2 30 0 40 -3 9 -5 -1 -4 -23z"/>
<path d="M1208 423 c6 -2 18 -2 25 0 6 3 1 5 -13 5 -14 0 -19 -2 -12 -5z"/>
<path d="M1143 413 c9 -2 25 -2 35 0 9 3 1 5 -18 5 -19 0 -27 -2 -17 -5z"/>
<path d="M331 401 c-10 -7 -7 -9 12 -8 15 1 27 5 27 10 0 10 -22 9 -39 -2z"/>
<path d="M742 328 l-2 -68 55 0 55 0 -2 68 -2 67 -3 -62 -4 -63 -44 0 -44 0
-4 63 -3 62 -2 -67z"/>
<path d="M580 373 c0 -5 14 -8 30 -8 17 0 30 3 30 8 0 4 -13 7 -30 7 -16 0
-30 -3 -30 -7z"/>
<path d="M956 372 c-3 -4 8 -6 24 -4 29 4 29 4 33 -52 l4 -56 -1 57 c-1 55 -2
58 -28 61 -14 2 -29 -1 -32 -6z"/>
<path d="M1198 373 c7 -3 16 -2 19 1 4 3 -2 6 -13 5 -11 0 -14 -3 -6 -6z"/>
<path d="M1160 360 c8 -5 20 -10 25 -10 6 0 3 5 -5 10 -8 5 -19 10 -25 10 -5
0 -3 -5 5 -10z"/>
<path d="M1130 351 c0 -6 4 -13 10 -16 6 -3 7 1 4 9 -7 18 -14 21 -14 7z"/>
<path d="M583 310 c0 -25 2 -35 4 -22 2 12 2 32 0 45 -2 12 -4 2 -4 -23z"/>
<path d="M633 305 c0 -27 2 -38 4 -22 2 15 2 37 0 50 -2 12 -4 0 -4 -28z"/>
<path d="M953 300 c0 -30 2 -43 4 -27 2 15 2 39 0 55 -2 15 -4 2 -4 -28z"/>
<path d="M1063 310 c0 -25 2 -35 4 -22 2 12 2 32 0 45 -2 12 -4 2 -4 -23z"/>
<path d="M435 331 c-3 -5 -1 -12 5 -16 5 -3 10 -2 10 4 0 5 8 12 18 14 13 4
12 5 -5 6 -12 0 -24 -3 -28 -8z"/>
<path d="M503 323 c9 -2 23 -2 30 0 6 3 -1 5 -18 5 -16 0 -22 -2 -12 -5z"/>
<path d="M1286 892 c-14 -28 -14 -31 2 -43 15 -12 16 -12 5 2 -10 12 -9 20 3
38 9 12 14 25 11 28 -3 2 -12 -9 -21 -25z"/>
<path d="M292 897 c-8 -10 -6 -21 10 -42 11 -17 18 -23 15 -14 -3 9 -1 21 4
26 10 10 2 43 -11 43 -4 0 -12 -6 -18 -13z m28 -17 c0 -5 -4 -10 -9 -10 -6 0
-13 5 -16 10 -3 6 1 10 9 10 9 0 16 -4 16 -10z"/>
<path d="M1334 855 c-16 -24 -12 -45 9 -45 8 0 8 3 0 11 -9 9 -8 18 4 35 8 13
13 24 9 24 -3 0 -13 -11 -22 -25z"/>
<path d="M243 863 c-7 -2 -13 -9 -13 -14 0 -6 4 -8 9 -4 5 3 19 -7 30 -21 12
-15 21 -22 21 -17 0 5 -9 18 -20 28 -11 10 -17 22 -14 26 6 10 5 10 -13 2z"/>
<path d="M1383 821 c-21 -27 -22 -30 -5 -42 15 -13 16 -12 4 3 -14 17 -1 35
18 23 6 -3 7 1 4 9 -7 19 7 21 26 4 8 -7 6 -3 -4 10 -11 12 -20 22 -20 21 -1
0 -11 -13 -23 -28z"/>
<path d="M230 805 c13 -14 26 -25 28 -25 3 0 -5 11 -18 25 -13 14 -26 25 -28
25 -3 0 5 -11 18 -25z"/>
<path d="M170 782 c0 -16 47 -45 60 -37 5 3 10 12 10 18 0 7 -4 6 -10 -3 -7
-12 -13 -11 -34 10 -15 13 -26 18 -26 12z"/>
<path d="M1431 774 c-25 -18 -27 -42 -5 -51 20 -7 41 12 23 22 -8 5 -10 4 -5
-3 4 -7 1 -12 -9 -12 -23 0 -15 34 9 38 10 2 22 -2 27 -10 7 -10 9 -10 9 3 0
24 -24 30 -49 13z"/>
<path d="M130 730 c0 -4 13 -19 29 -34 27 -26 29 -26 24 -7 -4 15 -1 21 11 21
10 0 15 4 12 9 -7 10 -76 20 -76 11z m40 -20 c0 -5 -2 -10 -4 -10 -3 0 -8 5
-11 10 -3 6 -1 10 4 10 6 0 11 -4 11 -10z"/>
<path d="M1467 704 c-23 -12 -26 -18 -17 -34 14 -26 23 -26 15 0 -4 11 -2 20
4 20 6 0 11 -4 11 -10 0 -5 4 -10 9 -10 5 0 7 10 4 23 -4 20 -3 21 10 5 19
-24 30 -23 17 2 -13 24 -16 24 -53 4z"/>
<path d="M165 650 c-5 -8 -19 -10 -38 -6 -38 8 -24 -9 14 -18 20 -4 29 -1 33
11 8 19 1 29 -9 13z"/>
<path d="M135 500 c-4 -6 -10 -8 -14 -6 -3 3 -7 -4 -7 -15 0 -24 0 -24 20 6 9
14 14 25 12 25 -3 0 -8 -5 -11 -10z"/>
<path d="M171 467 c-13 -21 -12 -21 5 -5 10 10 16 20 13 22 -3 3 -11 -5 -18
-17z"/>
<path d="M1491 458 c-13 -20 -12 -22 1 -11 8 7 18 10 22 6 4 -4 4 0 0 10 -8
21 -6 21 -23 -5z"/>
<path d="M336 278 c-16 -22 -6 -48 18 -48 6 0 5 4 -3 9 -8 5 -11 16 -6 30 5
18 9 19 28 9 20 -10 21 -10 8 5 -18 22 -27 21 -45 -5z"/>
<path d="M1267 294 c-9 -9 15 -54 29 -54 21 0 24 15 8 38 -15 22 -26 27 -37
16z m39 -42 c-9 -8 -26 10 -26 26 1 15 2 15 15 -2 8 -11 13 -21 11 -24z"/>
<path d="M1227 274 c-4 -4 -7 -12 -7 -17 0 -6 3 -8 6 -4 4 3 13 -1 22 -9 13
-14 13 -17 1 -26 -12 -8 -12 -9 0 -6 8 3 16 8 18 14 4 13 -31 56 -40 48z"/>
<path d="M355 260 c3 -5 8 -10 11 -10 2 0 4 5 4 10 0 6 -5 10 -11 10 -5 0 -7
-4 -4 -10z"/>
<path d="M396 262 c-2 -4 -1 -14 5 -22 14 -23 11 -34 -6 -20 -9 7 -15 8 -15 2
0 -15 32 -24 44 -12 7 7 6 14 -2 22 -19 19 -14 32 6 17 15 -13 16 -12 3 4 -15
18 -27 22 -35 9z"/>
<path d="M463 238 c2 -7 0 -21 -5 -31 -5 -10 -7 -21 -5 -23 3 -3 12 8 20 25
13 26 13 30 0 35 -9 4 -13 1 -10 -6z"/>
<path d="M1180 243 c0 -5 8 -17 17 -28 14 -18 15 -18 9 -2 -3 10 -6 23 -6 28
0 5 -4 9 -10 9 -5 0 -10 -3 -10 -7z"/>
<path d="M504 205 c-11 -43 25 -64 45 -27 11 21 4 36 -21 45 -13 5 -19 0 -24
-18z m36 -15 c0 -11 -7 -20 -15 -20 -15 0 -21 21 -8 33 12 13 23 7 23 -13z"/>
<path d="M1137 223 c-2 -5 4 -16 14 -27 17 -18 18 -18 12 3 -6 24 -19 35 -26
24z"/>
<path d="M1034 195 c-7 -19 7 -50 22 -50 16 0 15 41 0 55 -13 10 -17 9 -22 -5z
m26 -26 c0 -11 -4 -17 -10 -14 -5 3 -10 15 -10 26 0 11 5 17 10 14 6 -3 10
-15 10 -26z"/>
<path d="M624 188 c-4 -6 -3 -8 4 -4 6 3 13 2 17 -3 3 -6 -4 -15 -16 -22 -20
-10 -21 -12 -5 -21 10 -5 20 -7 23 -4 4 3 0 6 -7 6 -9 0 -8 5 4 19 10 11 15
25 11 30 -8 14 -22 14 -31 -1z"/>
<path d="M677 183 c-10 -10 -8 -51 2 -58 13 -7 34 33 27 51 -6 15 -18 18 -29
7z m15 -35 c-9 -9 -12 -7 -12 12 0 19 3 21 12 12 9 -9 9 -15 0 -24z"/>
<path d="M732 178 c-15 -15 -16 -45 -1 -54 6 -3 16 -1 22 6 9 9 7 15 -7 26
-18 13 -15 19 7 15 5 -1 6 3 2 9 -8 13 -8 13 -23 -2z m18 -38 c0 -5 -4 -10
-10 -10 -5 0 -10 5 -10 10 0 6 5 10 10 10 6 0 10 -4 10 -10z"/>
<path d="M886 181 c-4 -5 0 -11 6 -14 10 -4 11 -7 1 -18 -7 -7 -13 -17 -13
-21 0 -4 6 -8 13 -8 6 0 13 13 14 30 2 30 -11 48 -21 31z"/>
<path d="M930 160 c0 -19 5 -30 14 -30 20 0 29 16 21 40 -10 32 -35 25 -35
-10z m30 -12 c0 -5 -4 -8 -10 -8 -5 0 -10 10 -10 23 0 18 2 19 10 7 5 -8 10
-18 10 -22z"/>
<path d="M985 180 c-3 -5 -2 -10 4 -10 5 0 12 -8 14 -17 4 -14 5 -13 6 4 1 24
-14 39 -24 23z"/>
<path d="M777 173 c-11 -10 -8 -41 4 -49 6 -3 16 -1 22 6 9 9 8 15 -6 25 -18
13 -18 13 0 18 14 4 14 5 2 6 -9 0 -19 -2 -22 -6z m23 -33 c0 -5 -4 -10 -10
-10 -5 0 -10 5 -10 10 0 6 5 10 10 10 6 0 10 -4 10 -10z"/>
<path d="M1670 932 c0 -4 10 -12 23 -17 21 -10 22 -15 22 -125 0 -110 -1 -115
-22 -125 -45 -19 -21 -25 106 -25 144 0 141 -2 141 76 0 54 -15 58 -27 7 -11
-46 -39 -63 -106 -63 l-48 0 3 128 c3 123 4 127 26 130 50 7 18 22 -48 22 -38
0 -70 -3 -70 -8z"/>
<path d="M2054 843 c-59 -157 -72 -183 -88 -183 -9 0 -16 -4 -16 -10 0 -6 27
-10 60 -10 33 0 60 4 60 10 0 6 -9 10 -19 10 -28 0 -35 17 -21 51 12 27 16 29
70 29 54 0 58 -2 70 -29 14 -34 7 -51 -21 -51 -10 0 -19 -4 -19 -10 0 -11 123
-14 133 -3 4 3 -3 11 -15 17 -16 8 -36 47 -73 144 -37 97 -54 132 -67 132 -12
0 -27 -28 -54 -97z m74 -20 c11 -29 17 -54 14 -57 -7 -7 -77 -8 -84 -1 -3 3 4
32 16 65 11 32 24 56 28 52 3 -4 15 -30 26 -59z"/>
<path d="M2280 932 c0 -4 10 -12 23 -17 21 -10 22 -15 22 -125 0 -110 -1 -115
-22 -125 -46 -20 -20 -26 110 -23 l132 3 3 58 c3 64 -11 76 -25 20 -11 -46
-39 -63 -106 -63 l-48 0 3 128 c3 123 4 127 26 130 50 7 18 22 -48 22 -38 0
-70 -3 -70 -8z"/>
<path d="M2580 931 c0 -5 11 -12 25 -15 l26 -7 -3 -122 c-3 -118 -4 -122 -25
-125 -51 -7 -19 -22 47 -22 66 0 98 15 48 22 -22 3 -23 7 -26 125 l-3 122 26
7 c47 12 25 24 -45 24 -38 0 -70 -4 -70 -9z"/>
<path d="M2750 880 c0 -33 4 -60 10 -60 6 0 10 11 10 24 0 31 28 64 63 72 l28
6 -3 -128 c-3 -125 -4 -129 -25 -132 -13 -2 -23 -8 -23 -13 0 -12 137 -12 145
1 3 6 -2 10 -12 10 -37 0 -43 20 -43 137 0 125 5 136 57 111 20 -9 31 -24 37
-51 14 -55 26 -45 26 23 l0 60 -135 0 -135 0 0 -60z"/>
<path d="M3040 931 c0 -5 10 -11 23 -13 21 -3 22 -6 22 -128 0 -122 0 -125
-23 -128 -12 -2 -20 -8 -17 -13 8 -12 132 -12 140 1 3 6 -3 10 -13 10 -30 0
-44 24 -40 72 l3 43 66 5 c79 6 109 27 109 75 0 43 -18 64 -65 75 -52 12 -205
13 -205 1z m216 -32 c8 -6 14 -24 14 -40 0 -38 -33 -59 -92 -59 l-48 0 0 53
c0 30 3 57 8 61 10 11 101 -1 118 -15z"/>
<path d="M3330 931 c0 -5 10 -11 23 -13 21 -3 22 -8 27 -116 5 -109 6 -115 33
-138 22 -18 40 -24 78 -24 56 0 82 11 95 37 4 10 11 65 14 123 5 97 7 106 28
115 38 17 24 25 -43 25 -37 0 -65 -4 -65 -10 0 -5 8 -10 19 -10 35 0 43 -24
39 -126 -3 -86 -5 -98 -27 -115 -35 -28 -85 -25 -110 7 -18 23 -21 41 -21 118
0 95 8 116 42 116 10 0 18 5 18 10 0 6 -32 10 -75 10 -41 0 -75 -4 -75 -9z"/>
<path d="M3670 932 c0 -6 10 -12 23 -14 21 -3 22 -6 22 -128 0 -122 0 -125
-23 -128 -12 -2 -20 -8 -17 -13 8 -12 132 -12 140 1 3 6 -3 10 -13 10 -31 0
-43 24 -40 77 l3 48 49 -1 c58 -1 76 -19 76 -79 0 -48 13 -65 51 -65 21 0 29
7 38 31 14 40 14 39 -4 39 -9 0 -15 -10 -15 -26 0 -46 -25 -20 -28 29 -2 36
-9 51 -29 67 -19 15 -21 20 -9 20 26 0 56 37 56 70 0 49 -34 63 -166 68 -76 3
-114 1 -114 -6z m226 -33 c21 -17 17 -56 -8 -73 -14 -10 -44 -16 -75 -16 l-53
0 0 48 c0 27 3 52 8 56 10 11 111 0 128 -15z"/>
<path d="M1678 593 c7 -3 12 -23 12 -53 0 -29 -5 -50 -12 -53 -7 -3 13 -6 45
-6 53 -1 57 1 57 22 -1 20 -2 20 -11 5 -6 -11 -22 -18 -38 -18 -28 0 -29 2
-29 50 0 48 1 50 29 50 16 0 33 -8 39 -17 10 -16 10 -16 8 2 -3 17 -11 20 -58
21 -30 1 -49 -1 -42 -3z"/>
<path d="M1810 585 c7 -9 15 -13 18 -10 3 3 21 -19 40 -47 20 -29 37 -48 39
-42 4 11 -17 39 -64 90 -25 27 -54 35 -33 9z"/>
<path d="M1899 558 c5 -38 6 -39 9 -13 2 17 8 36 14 43 8 9 5 12 -9 12 -16 0
-18 -6 -14 -42z"/>
<path d="M1967 582 c-24 -26 -22 -79 2 -92 11 -5 26 -10 33 -9 7 0 3 4 -9 9
-45 18 -38 94 9 103 22 4 22 4 2 6 -11 0 -28 -7 -37 -17z"/>
<path d="M2095 539 c0 -46 3 -59 15 -59 22 0 22 116 0 117 -12 1 -15 -11 -15
-58z"/>
<path d="M2158 593 c7 -3 12 -24 12 -53 0 -29 -5 -50 -12 -53 -7 -3 -4 -6 7
-6 18 -1 20 4 17 51 l-4 53 38 -53 c20 -29 39 -50 41 -48 3 2 8 28 12 58 6 49
5 54 -12 56 -15 1 -17 -2 -8 -11 14 -14 15 -77 1 -77 -5 0 -10 4 -10 9 0 16
-66 81 -81 80 -10 0 -11 -2 -1 -6z"/>
<path d="M2309 587 c15 -15 14 -80 -1 -96 -11 -10 -2 -12 42 -9 46 3 55 6 58
23 2 18 2 18 -8 3 -6 -11 -23 -18 -40 -18 -29 0 -30 1 -30 50 0 49 1 50 30 50
17 0 34 -7 40 -17 10 -16 10 -16 8 2 -3 17 -12 20 -57 21 -38 1 -50 -1 -42 -9z"/>
<path d="M2439 587 c15 -15 14 -94 -1 -100 -7 -3 13 -6 45 -6 53 -1 57 1 57
22 -1 20 -2 20 -11 5 -6 -11 -22 -18 -38 -18 -28 0 -29 2 -29 50 0 48 1 50 29
50 16 0 33 -8 39 -17 10 -16 10 -16 8 2 -3 17 -12 20 -57 21 -38 1 -50 -1 -42
-9z"/>
<path d="M2569 592 c15 -5 14 -99 -1 -105 -7 -3 1 -6 17 -6 17 0 25 3 18 7 -6
4 -11 27 -10 52 2 38 5 45 25 48 24 4 41 -23 25 -39 -12 -12 -5 -56 9 -65 5
-4 15 -1 21 6 9 9 9 11 1 7 -7 -4 -14 4 -17 21 -3 15 -1 29 4 30 15 6 10 31
-9 41 -9 5 -35 9 -56 8 -21 -1 -34 -3 -27 -5z"/>
<path d="M2709 587 c15 -15 14 -94 -1 -100 -7 -3 1 -5 17 -5 17 0 24 2 18 5
-8 3 -13 24 -13 53 0 30 5 50 13 53 6 2 -1 4 -16 4 -20 0 -25 -3 -18 -10z"/>
<path d="M2796 572 c16 -16 41 -44 56 -63 l27 -34 0 57 c1 35 6 58 14 61 6 3
3 5 -8 4 -17 -1 -20 -7 -17 -46 l3 -46 -23 30 c-33 43 -56 65 -69 65 -6 0 2
-13 17 -28z"/>
<path d="M2935 586 c-39 -28 -14 -106 34 -106 10 0 6 5 -9 13 -42 21 -36 97 8
97 8 0 24 -7 34 -17 16 -14 18 -14 18 -1 0 9 -10 18 -22 22 -33 9 -42 7 -63
-8z"/>
<path d="M3134 592 c-23 -15 -34 -50 -24 -76 16 -43 87 -47 97 -5 3 8 0 7 -7
-3 -6 -10 -22 -18 -36 -18 -53 0 -55 93 -2 103 19 4 20 4 3 5 -11 1 -25 -2
-31 -6z"/>
<path d="M3247 582 c-35 -39 -9 -102 41 -102 28 0 62 34 62 60 0 27 -35 60
-63 60 -13 0 -31 -8 -40 -18z m71 -4 c7 -7 12 -24 12 -38 0 -52 -62 -72 -80
-25 -20 53 30 101 68 63z"/>
<path d="M3379 587 c15 -15 14 -94 -1 -100 -7 -3 11 -6 40 -6 48 -1 52 1 51
22 -1 16 -2 18 -6 5 -3 -12 -14 -18 -34 -18 -28 0 -29 1 -29 49 0 30 5 51 13
54 6 2 -1 4 -16 4 -20 0 -25 -3 -18 -10z"/>
<path d="M3499 587 c15 -15 14 -94 -1 -100 -7 -3 11 -6 40 -6 48 -1 52 1 51
22 -1 16 -2 18 -6 5 -3 -12 -14 -18 -34 -18 -28 0 -29 1 -29 49 0 30 5 51 13
54 6 2 -1 4 -16 4 -20 0 -25 -3 -18 -10z"/>
<path d="M3619 587 c15 -15 14 -94 -1 -100 -7 -3 13 -6 45 -6 53 -1 57 1 57
22 -1 20 -2 20 -11 5 -6 -11 -22 -18 -39 -18 -29 0 -30 1 -30 50 0 49 1 50 30
50 17 0 34 -7 40 -17 10 -16 10 -16 8 2 -3 17 -12 20 -57 21 -38 1 -50 -1 -42
-9z"/>
<path d="M3760 580 c-11 -11 -20 -28 -20 -38 0 -28 29 -62 53 -62 21 0 21 1
-3 13 -19 10 -25 20 -25 47 0 27 6 37 25 47 18 9 20 13 8 13 -10 0 -27 -9 -38
-20z"/>
<path d="M3885 537 l0 -58 50 3 c41 2 50 7 53 23 3 19 2 19 -11 3 -8 -10 -26
-18 -41 -18 -25 0 -26 3 -26 50 0 47 1 50 26 50 15 0 33 -8 40 -17 13 -17 13
-17 14 -1 0 20 -29 30 -75 26 -30 -3 -30 -4 -30 -61z"/>
<path d="M2036 575 c4 -8 8 -15 10 -15 2 0 4 7 4 15 0 8 -4 15 -10 15 -5 0 -7
-7 -4 -15z"/>
<path d="M3196 575 c4 -8 8 -15 10 -15 2 0 4 7 4 15 0 8 -4 15 -10 15 -5 0 -7
-7 -4 -15z"/>
<path d="M3820 586 c0 -2 7 -9 15 -16 12 -10 15 -10 15 4 0 9 -7 16 -15 16 -8
0 -15 -2 -15 -4z"/>
<path d="M2780 528 c-5 -43 -3 -48 15 -48 13 0 16 3 8 8 -6 4 -13 25 -15 47
l-3 40 -5 -47z"/>
<path d="M1733 545 c-3 -9 -3 -18 -1 -21 3 -3 8 4 11 16 6 23 -1 27 -10 5z"/>
<path d="M1820 526 c0 -19 -6 -37 -12 -39 -7 -3 -4 -6 7 -6 18 -1 20 4 17 39
-5 49 -12 52 -12 6z"/>
<path d="M2357 545 c-4 -8 -2 -17 3 -20 6 -4 10 3 10 14 0 25 -6 27 -13 6z"/>
<path d="M2492 540 c0 -14 2 -19 5 -12 2 6 2 18 0 25 -3 6 -5 1 -5 -13z"/>
<path d="M3667 545 c-4 -8 -2 -17 3 -20 6 -4 10 3 10 14 0 25 -6 27 -13 6z"/>
<path d="M3935 550 c-3 -5 -1 -18 4 -27 9 -16 10 -14 11 10 0 28 -5 34 -15 17z"/>
<path d="M2030 530 c12 -7 13 -13 3 -28 -9 -15 -8 -19 3 -19 8 0 14 10 14 23
0 12 6 25 13 27 6 3 -1 6 -18 6 -23 1 -26 -2 -15 -9z"/>
<path d="M2999 531 c8 -5 11 -16 8 -25 -3 -8 -2 -18 3 -21 6 -4 10 5 10 19 0
13 6 27 13 29 6 3 -1 6 -18 6 -21 1 -26 -2 -16 -8z"/>
<path d="M3828 528 c8 -8 8 -15 2 -24 -7 -8 -6 -13 5 -18 11 -4 15 1 15 18 0
14 6 27 13 29 6 3 -1 6 -17 6 -23 1 -27 -2 -18 -11z"/>
<path d="M1670 425 c0 -13 131 -15 1158 -13 763 2 1157 6 1157 13 0 7 -394 11
-1157 13 -1027 2 -1158 0 -1158 -13z"/>
<path d="M1824 356 c-3 -7 -4 -33 -2 -57 3 -43 4 -42 8 14 5 58 4 68 -6 43z"/>
<path d="M1874 356 c-3 -7 -4 -33 -2 -57 3 -43 4 -42 8 14 5 58 4 68 -6 43z"/>
<path d="M1920 359 c0 -5 5 -7 10 -4 6 3 10 8 10 11 0 2 -4 4 -10 4 -5 0 -10
-5 -10 -11z"/>
<path d="M1973 315 c0 -33 2 -45 4 -27 2 18 2 45 0 60 -2 15 -4 0 -4 -33z"/>
<path d="M2296 320 c2 -70 14 -76 14 -7 0 31 -3 57 -7 57 -5 0 -7 -23 -7 -50z"/>
<path d="M2730 322 c0 -29 3 -52 8 -52 9 0 7 88 -2 97 -3 4 -6 -17 -6 -45z"/>
<path d="M2810 317 c0 -31 3 -57 8 -57 8 0 6 100 -3 108 -3 3 -5 -20 -5 -51z"/>
<path d="M3460 359 c0 -5 5 -7 10 -4 6 3 10 8 10 11 0 2 -4 4 -10 4 -5 0 -10
-5 -10 -11z"/>
<path d="M1753 350 c14 -48 32 -90 39 -90 5 0 2 16 -6 35 -17 40 -40 78 -33
55z"/>
<path d="M2540 349 c0 -5 5 -7 10 -4 6 3 10 8 10 11 0 2 -4 4 -10 4 -5 0 -10
-5 -10 -11z"/>
<path d="M2575 310 c0 -28 3 -50 7 -50 5 0 8 23 8 50 0 28 -3 50 -7 50 -5 0
-8 -23 -8 -50z"/>
<path d="M3278 318 c4 -41 15 -58 37 -58 6 1 2 5 -7 11 -12 7 -18 22 -18 49 0
22 -3 40 -8 40 -4 0 -6 -19 -4 -42z"/>
<path d="M3340 318 c-3 -26 -1 -43 3 -39 5 5 7 26 5 47 l-3 39 -5 -47z"/>
<path d="M3951 350 c0 -8 6 -28 14 -45 7 -16 14 -23 14 -15 0 8 -6 29 -14 45
-7 17 -14 23 -14 15z"/>
<path d="M2013 300 c0 -25 2 -35 4 -22 2 12 2 32 0 45 -2 12 -4 2 -4 -23z"/>
<path d="M2090 307 c0 -20 4 -38 9 -41 10 -7 9 59 -2 70 -4 4 -7 -9 -7 -29z"/>
<path d="M2137 308 c2 -48 2 -48 11 -48 4 0 6 18 4 40 -5 48 -18 54 -15 8z"/>
<path d="M2216 327 c3 -10 9 -15 12 -12 3 3 0 11 -7 18 -10 9 -11 8 -5 -6z"/>
<path d="M2380 306 c0 -19 3 -37 8 -39 4 -3 7 12 7 34 0 21 -3 39 -7 39 -5 0
-8 -15 -8 -34z"/>
<path d="M2463 329 c9 -5 17 -18 18 -27 0 -11 2 -12 6 -4 6 15 -14 42 -31 42
-6 0 -3 -5 7 -11z"/>
<path d="M2643 333 c-15 -6 -18 -73 -3 -73 6 0 8 10 4 24 -3 15 1 29 11 40 16
16 12 19 -12 9z"/>
<path d="M2693 300 c0 -25 2 -35 4 -22 2 12 2 32 0 45 -2 12 -4 2 -4 -23z"/>
<path d="M2773 315 c7 -13 14 -20 15 -14 5 14 -6 39 -17 39 -5 0 -4 -11 2 -25z"/>
<path d="M2847 329 c6 -8 13 -27 16 -44 4 -23 4 -20 3 9 -1 25 -6 41 -16 44
-12 4 -13 2 -3 -9z"/>
<path d="M2900 307 c0 -20 4 -38 9 -42 6 -3 7 10 4 32 -8 50 -13 55 -13 10z"/>
<path d="M2942 305 c1 -19 4 -35 7 -35 11 0 12 58 1 65 -5 3 -9 -9 -8 -30z"/>
<path d="M2980 336 c0 -1 5 -17 11 -35 15 -43 29 -40 15 4 -6 19 -14 35 -18
35 -5 0 -8 -2 -8 -4z"/>
<path d="M3095 304 c0 -19 5 -36 10 -38 7 -2 9 9 7 30 -6 45 -17 51 -17 8z"/>
<path d="M3177 333 c6 -4 13 -24 16 -43 4 -34 4 -33 3 4 -1 26 -6 41 -16 43
-10 3 -11 2 -3 -4z"/>
<path d="M3418 300 c2 -22 7 -40 11 -40 4 0 5 18 3 40 -2 22 -7 40 -11 40 -4
0 -5 -18 -3 -40z"/>
<path d="M3505 323 c4 -10 10 -26 12 -35 3 -10 9 -18 13 -18 4 0 2 16 -4 35
-6 19 -15 35 -20 35 -4 0 -5 -8 -1 -17z"/>
<path d="M3550 329 c0 -5 5 -7 10 -4 6 3 10 8 10 11 0 2 -4 4 -10 4 -5 0 -10
-5 -10 -11z"/>
<path d="M3616 327 c3 -10 9 -15 12 -12 3 3 0 11 -7 18 -10 9 -11 8 -5 -6z"/>
<path d="M3783 300 c0 -25 2 -35 4 -22 2 12 2 32 0 45 -2 12 -4 2 -4 -23z"/>
<path d="M3820 306 c0 -19 5 -38 10 -41 6 -4 10 10 10 34 0 23 -4 41 -10 41
-5 0 -10 -15 -10 -34z"/>
<path d="M3875 323 c4 -10 10 -26 12 -35 3 -10 9 -18 14 -18 12 0 11 17 -1 25
-5 3 -10 15 -10 26 0 10 -5 19 -11 19 -7 0 -8 -7 -4 -17z"/>
<path d="M3920 329 c0 -5 5 -7 10 -4 6 3 10 8 10 11 0 2 -4 4 -10 4 -5 0 -10
-5 -10 -11z"/>
<path d="M1920 295 c0 -19 4 -35 8 -35 5 0 9 16 10 35 1 19 -3 35 -8 35 -6 0
-10 -16 -10 -35z"/>
<path d="M2181 304 c-1 -21 5 -34 15 -38 13 -5 14 -3 6 6 -5 7 -12 24 -15 38
-4 22 -4 21 -6 -6z"/>
<path d="M2257 323 c-13 -12 -7 -40 11 -54 15 -13 16 -12 3 3 -7 10 -11 27 -8
38 5 21 4 24 -6 13z"/>
<path d="M3140 295 c0 -19 4 -35 8 -35 5 0 9 16 9 35 0 19 -4 35 -9 35 -4 0
-8 -16 -8 -35z"/>
<path d="M3383 295 c0 -22 2 -30 4 -17 2 12 2 30 0 40 -3 9 -5 -1 -4 -23z"/>
<path d="M3460 297 c0 -20 4 -37 10 -37 5 0 7 14 3 33 -8 45 -13 47 -13 4z"/>
<path d="M3579 314 c-7 -23 6 -54 23 -54 7 0 7 4 0 13 -5 6 -12 23 -14 37 -3
23 -4 24 -9 4z"/>
<path d="M3663 295 c0 -22 2 -30 4 -17 2 12 2 30 0 40 -3 9 -5 -1 -4 -23z"/>
<path d="M3711 321 c7 -19 49 -47 49 -32 0 6 -4 11 -9 11 -5 0 -17 8 -27 17
-12 12 -16 13 -13 4z"/>
<path d="M1671 300 c-1 -34 9 -70 21 -70 5 0 6 5 2 12 -4 7 -11 28 -15 48 -5
26 -7 29 -8 10z"/>
<path d="M1722 295 c-14 -31 -15 -35 -3 -35 8 0 23 51 17 58 -2 1 -8 -9 -14
-23z"/>
<path d="M2420 297 c0 -15 27 -43 34 -36 3 2 -4 15 -15 28 -13 16 -19 18 -19
8z"/>
<path d="M2050 286 c0 -8 4 -17 8 -20 4 -2 8 4 8 15 0 10 -4 19 -8 19 -4 0 -8
-6 -8 -14z"/>
<path d="M3055 290 c-8 -12 2 -30 17 -30 7 0 7 4 -1 13 -6 8 -8 17 -4 20 3 4
4 7 0 7 -3 0 -9 -4 -12 -10z"/>
<path d="M3875 240 c-3 -5 -1 -10 4 -10 6 0 11 5 11 10 0 6 -2 10 -4 10 -3 0
-8 -4 -11 -10z"/>
</g>
</svg>
