<?xml version="1.0" standalone="no"?>
<!DOCTYPE svg PUBLIC "-//W3C//DTD SVG 20010904//EN"
 "http://www.w3.org/TR/2001/REC-SVG-20010904/DTD/svg10.dtd">
<svg version="1.0" xmlns="http://www.w3.org/2000/svg"
 width="400.000000pt" height="118.000000pt" viewBox="0 0 400.000000 118.000000"
 preserveAspectRatio="xMidYMid meet">

<g transform="translate(0.000000,118.000000) scale(0.100000,-0.100000)"
fill="#000000" stroke="none">
<path d="M664 1090 c-225 -35 -395 -114 -506 -234 -202 -218 -124 -501 179
-655 116 -59 208 -86 363 -106 103 -13 128 -13 228 0 245 32 406 101 531 225
254 254 112 590 -309 729 -67 23 -293 61 -345 60 -16 -1 -80 -9 -141 -19z
m276 -10 c292 -36 509 -159 597 -339 24 -49 28 -68 28 -146 0 -116 -28 -179
-117 -269 -110 -109 -270 -182 -468 -212 -454 -68 -901 154 -918 457 -12 212
158 390 453 473 150 43 279 54 425 36z"/>
<path d="M720 1028 c0 -21 38 -63 48 -53 4 4 0 12 -9 18 -8 7 -21 21 -27 32
-10 17 -11 18 -12 3z"/>
<path d="M790 1005 c0 -30 3 -35 23 -34 16 1 18 2 5 6 -21 5 -23 19 -5 26 10
4 10 6 0 6 -19 1 -16 19 5 24 13 4 11 5 -5 6 -20 1 -23 -4 -23 -34z"/>
<path d="M847 1013 c-6 -33 -1 -43 21 -43 15 0 15 2 2 10 -13 9 -13 11 0 20
10 6 11 10 3 10 -19 0 -16 18 5 23 13 4 13 5 -4 6 -16 1 -23 -6 -27 -26z"/>
<path d="M907 1008 c-5 -37 0 -49 12 -29 7 11 11 10 20 -5 11 -18 12 -17 6 3
-3 12 -1 24 5 28 8 5 8 11 -1 21 -19 23 -36 16 -42 -18z m29 -5 c-10 -10 -19
5 -10 18 6 11 8 11 12 0 2 -7 1 -15 -2 -18z"/>
<path d="M627 1023 c-13 -12 -7 -50 9 -63 12 -11 18 -10 32 3 13 14 14 19 3
29 -12 11 -13 10 -8 -5 5 -14 3 -18 -11 -15 -23 4 -23 43 0 42 10 -1 15 2 12
7 -6 11 -28 12 -37 2z"/>
<path d="M692 1005 c0 -16 2 -22 5 -12 2 9 2 23 0 30 -3 6 -5 -1 -5 -18z"/>
<path d="M974 1016 c-3 -8 -4 -25 -2 -38 3 -17 5 -13 9 15 5 38 2 47 -7 23z"/>
<path d="M591 1004 c0 -11 3 -14 6 -6 3 7 2 16 -1 19 -3 4 -6 -2 -5 -13z"/>
<path d="M1000 999 c0 -11 5 -17 10 -14 6 3 10 13 10 21 0 8 -4 14 -10 14 -5
0 -10 -9 -10 -21z"/>
<path d="M1040 1007 c0 -9 -4 -17 -10 -17 -5 0 -10 -9 -10 -20 0 -11 4 -20 9
-20 10 0 24 60 16 68 -3 3 -5 -2 -5 -11z"/>
<path d="M556 983 c9 -35 14 -42 14 -17 1 19 1 19 15 0 8 -11 18 -17 21 -13 6
6 -40 57 -52 57 -2 0 -1 -12 2 -27z"/>
<path d="M1072 998 c-27 -27 -2 -81 29 -62 12 7 12 34 -1 34 -5 0 -7 -7 -4
-15 4 -8 1 -15 -5 -15 -18 0 -25 29 -11 45 10 12 16 13 28 3 13 -11 14 -10 10
2 -6 20 -30 24 -46 8z"/>
<path d="M496 991 c-7 -10 13 -71 22 -71 4 0 14 5 22 10 12 8 11 10 -7 10 -27
0 -31 17 -5 23 12 3 9 5 -8 6 -24 2 -24 2 -6 16 17 13 17 15 4 15 -9 0 -19 -4
-22 -9z"/>
<path d="M1158 955 c-9 -21 -9 -29 4 -41 11 -11 18 -12 22 -5 4 6 0 11 -8 11
-19 0 -20 5 -5 31 9 17 13 18 26 7 14 -11 15 -11 11 2 -8 26 -37 23 -50 -5z"/>
<path d="M412 961 c-12 -7 -11 -13 2 -37 8 -16 15 -23 16 -16 0 9 7 11 19 7
19 -6 19 -5 5 24 -16 33 -21 36 -42 22z m28 -10 c0 -6 -4 -13 -10 -16 -5 -3
-10 1 -10 9 0 9 5 16 10 16 6 0 10 -4 10 -9z"/>
<path d="M1220 929 c-15 -27 -6 -49 19 -49 27 0 47 36 30 56 -16 20 -36 17
-49 -7z m38 -11 c-4 -27 -28 -36 -28 -10 0 20 8 32 22 32 5 0 8 -10 6 -22z"/>
<path d="M379 919 c14 -38 1 -44 -21 -12 -20 32 -24 26 -6 -12 13 -29 48 -34
48 -7 0 10 -7 27 -15 38 -14 18 -15 17 -6 -7z"/>
<path d="M700 930 c-220 -28 -402 -126 -466 -251 -51 -102 -22 -227 72 -307
114 -97 262 -150 444 -159 193 -9 347 21 482 94 213 115 251 320 87 467 -131
118 -396 185 -619 156z m270 -21 c89 -14 205 -54 268 -92 54 -33 62 -52 21
-52 -29 0 -51 -13 -44 -26 4 -5 3 -15 -1 -21 -13 -21 -11 -48 3 -48 8 0 11 -5
8 -10 -4 -6 -16 -8 -27 -4 -11 3 -23 2 -27 -4 -3 -5 -30 -13 -60 -17 -51 -7
-54 -6 -49 13 4 14 -1 24 -18 33 -13 7 -24 18 -24 24 0 8 -16 11 -51 7 -37 -3
-50 -2 -45 7 4 6 20 11 37 11 19 0 29 5 29 15 0 8 -4 15 -9 15 -5 0 -13 9 -16
20 -4 11 -11 18 -16 14 -6 -3 -8 -12 -5 -20 4 -10 -2 -14 -20 -14 -21 0 -24
-4 -19 -20 3 -11 2 -20 -3 -20 -4 0 -20 -18 -34 -39 -18 -28 -23 -42 -15 -50
16 -16 5 -22 -47 -26 -36 -4 -46 -1 -46 10 0 16 -25 21 -34 6 -7 -11 -55 -11
-62 0 -3 5 -1 17 5 27 7 14 5 21 -9 30 -11 6 -22 8 -25 3 -3 -5 1 -12 7 -15 7
-2 3 -4 -9 -3 -29 3 -31 -15 -4 -28 30 -14 26 -22 -14 -23 -24 -1 -35 3 -35
13 0 7 -11 27 -25 43 -14 17 -32 43 -40 59 -8 16 -15 21 -15 12 0 -9 -9 -24
-20 -34 -11 -10 -20 -23 -20 -28 0 -6 9 -2 20 8 20 18 21 18 41 -1 12 -13 17
-27 13 -37 -7 -20 -30 -22 -38 -4 -5 10 -7 10 -12 0 -8 -19 -24 -16 -25 5 -1
11 -3 8 -8 -8 -5 -19 -14 -24 -36 -25 -24 0 -31 -5 -33 -24 -3 -21 -7 -23 -40
-17 -21 3 -45 6 -54 6 -10 0 -18 8 -19 18 0 14 -2 14 -8 -3 -5 -11 -4 -25 1
-32 10 -13 -6 -53 -22 -53 -5 0 -12 15 -16 34 -22 118 84 248 258 317 130 52
338 73 488 48z m340 -189 c0 -5 -9 -10 -20 -10 -11 0 -20 5 -20 10 0 6 9 10
20 10 11 0 20 -4 20 -10z m74 -60 c19 -48 23 -141 5 -123 -9 9 -17 6 -31 -10
-10 -12 -18 -17 -17 -12 3 24 -2 27 -16 9 -14 -18 -15 -18 -46 -1 -26 14 -34
15 -41 5 -6 -11 -10 -10 -17 1 -6 9 -10 10 -16 2 -5 -9 -10 -9 -20 -1 -7 6
-16 7 -19 2 -7 -11 -49 -8 -53 4 -2 5 11 24 29 41 30 28 41 31 120 37 82 6 88
5 102 -16 9 -12 19 -19 23 -15 3 4 1 13 -5 19 -7 7 -12 21 -12 31 0 11 -7 25
-17 32 -9 7 -13 17 -9 23 13 21 23 13 40 -28z m-344 10 c0 -6 -35 -10 -86 -10
-54 0 -83 4 -79 10 3 6 42 10 86 10 46 0 79 -4 79 -10z m290 -10 c0 -5 -16
-10 -36 -10 -21 0 -33 4 -29 10 3 6 19 10 36 10 16 0 29 -4 29 -10z m-410 -70
c0 -5 -7 -10 -15 -10 -8 0 -15 5 -15 10 0 6 7 10 15 10 8 0 15 -4 15 -10z m70
1 c0 -5 -9 -13 -20 -16 -22 -7 -27 -30 -9 -41 8 -5 6 -10 -6 -16 -11 -7 -21
-6 -28 1 -7 7 -55 11 -123 11 -65 0 -115 4 -119 10 -3 6 3 10 15 10 11 0 23 7
26 15 5 11 23 15 75 15 55 0 69 -3 69 -15 0 -9 9 -15 23 -15 26 0 49 13 46 26
-1 5 -1 12 0 17 2 10 51 9 51 -2z m117 -23 c-22 -29 -30 -33 -64 -30 -21 1
-44 5 -52 8 -32 11 55 47 128 53 9 1 5 -10 -12 -31z m-473 -36 c-7 -4 -13 -16
-15 -27 -3 -11 -13 -21 -24 -23 -18 -3 -18 -3 -4 10 9 7 20 26 23 42 6 22 10
26 19 17 9 -9 9 -14 1 -19z m276 -21 c0 -5 9 -13 20 -16 11 -3 20 -11 20 -16
0 -6 -9 -7 -21 -4 -15 5 -19 4 -15 -4 4 -6 25 -11 47 -11 28 0 39 -4 39 -15 0
-9 9 -15 25 -15 29 0 36 -29 8 -31 -17 -1 -17 -2 0 -6 9 -2 17 -11 17 -19 0
-18 -14 -18 -30 1 -14 17 -56 20 -65 4 -4 -6 -17 -14 -29 -19 -17 -7 -17 -9
-3 -9 14 -1 17 -10 17 -50 0 -44 -2 -49 -26 -54 -37 -7 -226 -1 -246 8 -26 10
-26 95 0 96 13 0 13 2 -4 9 -12 5 -25 13 -29 19 -9 16 -41 13 -55 -4 -7 -8
-24 -16 -39 -16 l-26 -2 28 -4 c23 -4 27 -9 27 -39 0 -39 -10 -42 -70 -18 -48
19 -54 37 -8 23 41 -11 48 -11 48 0 0 5 -15 12 -32 16 -55 11 -68 16 -68 26 0
5 16 9 36 9 49 0 77 16 69 41 -5 15 -2 19 19 19 16 0 26 6 26 15 0 11 12 15
45 15 43 0 45 1 45 30 l0 30 115 0 c64 0 115 -4 115 -9z m-587 -8 c-7 -2 -13
-9 -13 -15 0 -12 26 -39 33 -32 2 3 5 -7 5 -21 0 -35 -30 -33 -62 6 -14 17
-26 35 -26 40 0 11 37 28 60 28 10 -1 11 -2 3 -6z m992 -13 c3 -5 1 -10 -4
-10 -6 0 -11 5 -11 10 0 6 2 10 4 10 3 0 8 -4 11 -10z m-811 -25 c-7 -16 -24
-21 -24 -6 0 6 -15 12 -32 14 -26 3 -22 4 14 5 38 2 46 -1 42 -13z m626 5 c0
-5 -2 -10 -4 -10 -3 0 -8 5 -11 10 -3 6 -1 10 4 10 6 0 11 -4 11 -10z m77 4
c-3 -3 -12 -4 -19 -1 -8 3 -5 6 6 6 11 1 17 -2 13 -5z m123 -28 c0 -19 -23
-33 -28 -18 -2 7 -25 13 -50 14 l-47 1 45 7 c72 11 80 11 80 -4z m-147 -13
c-7 -2 -21 -2 -30 0 -10 3 -4 5 12 5 17 0 24 -2 18 -5z m-797 -30 c-10 -10
-19 5 -10 18 6 11 8 11 12 0 2 -7 1 -15 -2 -18z m824 -53 c-6 -11 -20 -20 -30
-20 -11 0 -20 -4 -20 -10 0 -5 -8 -10 -17 -10 -16 1 -16 2 -2 13 9 7 14 19 11
27 -5 13 -3 13 12 0 16 -12 19 -12 27 3 14 25 32 22 19 -3z m-160 -40 c0 -22
-4 -40 -10 -40 -5 0 -10 18 -10 40 0 22 5 40 10 40 6 0 10 -18 10 -40z"/>
<path d="M757 473 c-8 -10 -17 -29 -19 -43 -2 -20 -9 -25 -30 -25 -15 -1 -30
-4 -34 -8 -4 -4 9 -7 29 -7 l37 0 0 -70 0 -71 58 3 57 3 3 67 3 67 47 4 47 3
-47 2 c-44 2 -48 4 -48 27 0 53 -69 85 -103 48z"/>
<path d="M1286 892 c-14 -28 -14 -31 2 -43 15 -12 16 -12 5 2 -10 12 -9 20 3
38 9 12 14 25 11 28 -3 2 -12 -9 -21 -25z"/>
<path d="M292 898 c-8 -11 -6 -21 10 -43 11 -17 18 -23 15 -14 -3 9 0 22 6 28
8 8 7 15 -4 27 -13 12 -18 13 -27 2z"/>
<path d="M1334 855 c-16 -24 -12 -45 9 -45 8 0 8 3 0 11 -9 9 -8 18 4 35 8 13
13 24 9 24 -3 0 -13 -11 -22 -25z"/>
<path d="M243 863 c-7 -3 -13 -10 -13 -15 0 -6 3 -8 7 -5 3 4 18 -3 32 -15 20
-18 22 -19 10 -3 -9 11 -18 25 -20 31 -2 6 -10 9 -16 7z"/>
<path d="M1381 817 c-21 -23 -21 -25 -4 -38 16 -13 17 -12 5 3 -14 17 -1 35
18 23 6 -4 7 1 3 11 -5 14 -3 16 11 11 10 -4 15 -3 11 3 -9 15 -20 12 -44 -13z"/>
<path d="M230 805 c13 -14 26 -25 28 -25 3 0 -5 11 -18 25 -13 14 -26 25 -28
25 -3 0 5 -11 18 -25z"/>
<path d="M1431 774 c-25 -18 -27 -42 -5 -51 19 -7 41 11 25 21 -6 4 -11 2 -11
-4 0 -6 -5 -8 -10 -5 -8 5 -7 11 1 21 14 17 36 18 42 2 4 -8 6 -7 6 3 1 24
-23 30 -48 13z"/>
<path d="M189 759 c26 -21 43 -21 49 2 3 12 2 12 -7 -1 -8 -12 -12 -12 -29 3
-10 9 -23 17 -28 17 -5 -1 2 -10 15 -21z"/>
<path d="M151 704 c19 -21 25 -23 27 -10 2 9 10 16 18 16 8 0 12 5 9 10 -3 6
-22 10 -42 10 l-36 0 24 -26z m19 6 c0 -5 -2 -10 -4 -10 -3 0 -8 5 -11 10 -3
6 -1 10 4 10 6 0 11 -4 11 -10z"/>
<path d="M1468 704 c-20 -10 -25 -19 -20 -32 6 -16 7 -16 10 1 4 18 22 24 22
7 0 -5 4 -10 10 -10 5 0 7 7 4 15 -7 18 12 20 20 3 3 -7 5 -4 3 6 -3 26 -16
28 -49 10z"/>
<path d="M165 650 c-5 -7 -20 -10 -39 -6 -33 6 -19 -6 20 -18 15 -5 24 -2 28
10 8 20 1 30 -9 14z"/>
<path d="M336 278 c-16 -23 -6 -49 18 -47 7 0 6 2 -1 6 -7 2 -13 9 -13 15 0 6
7 7 16 4 14 -5 15 -4 5 8 -7 8 -10 20 -6 26 12 20 -4 10 -19 -12z"/>
<path d="M1266 291 c-3 -5 3 -20 13 -32 26 -32 48 -14 25 19 -16 23 -29 28
-38 13z m34 -27 c0 -8 -4 -12 -10 -9 -5 3 -10 13 -10 21 0 8 5 12 10 9 6 -3
10 -13 10 -21z"/>
<path d="M395 261 c-3 -5 -1 -12 5 -16 5 -3 10 -13 10 -22 0 -13 -3 -13 -15
-3 -9 7 -15 8 -15 2 0 -15 32 -24 44 -12 7 7 6 14 -2 22 -19 19 -14 32 6 17
15 -13 16 -12 3 4 -15 19 -27 22 -36 8z"/>
<path d="M1241 250 c21 -17 22 -21 9 -30 -9 -6 -10 -10 -3 -10 6 0 14 4 18 10
8 13 -17 50 -34 50 -8 0 -4 -8 10 -20z"/>
<path d="M463 238 c2 -7 0 -21 -5 -31 -5 -10 -7 -21 -5 -23 3 -3 12 8 20 25
13 26 13 30 0 35 -9 4 -13 1 -10 -6z"/>
<path d="M1180 243 c0 -5 8 -17 17 -28 14 -18 15 -18 9 -2 -3 10 -6 23 -6 28
0 5 -4 9 -10 9 -5 0 -10 -3 -10 -7z"/>
<path d="M1140 223 c0 -5 7 -18 15 -29 13 -18 14 -18 8 4 -5 22 -23 41 -23 25z"/>
<path d="M507 213 c-13 -12 -7 -44 9 -50 23 -9 48 25 33 44 -12 14 -32 17 -42
6z m33 -17 c0 -16 -18 -31 -27 -22 -8 8 5 36 17 36 5 0 10 -6 10 -14z"/>
<path d="M1034 195 c-7 -19 7 -50 22 -50 16 0 15 41 0 55 -13 10 -17 9 -22 -5z
m26 -21 c0 -8 -4 -14 -10 -14 -5 0 -10 9 -10 21 0 11 5 17 10 14 6 -3 10 -13
10 -21z"/>
<path d="M624 188 c-4 -7 -3 -8 4 -4 7 4 12 1 12 -7 0 -8 -8 -18 -17 -22 -17
-6 -17 -7 0 -17 10 -5 21 -7 24 -4 4 3 0 6 -7 6 -9 0 -8 5 4 19 10 11 15 25
11 30 -8 14 -22 14 -31 -1z"/>
<path d="M677 184 c-13 -14 -7 -54 8 -54 8 0 15 5 15 11 0 5 -4 7 -10 4 -5 -3
-10 4 -10 16 0 19 2 20 17 8 14 -12 16 -12 12 0 -6 17 -22 24 -32 15z"/>
<path d="M937 184 c-4 -4 -7 -18 -7 -31 0 -26 27 -32 37 -7 6 17 -19 49 -30
38z m23 -30 c0 -8 -4 -14 -10 -14 -5 0 -10 9 -10 21 0 11 5 17 10 14 6 -3 10
-13 10 -21z"/>
<path d="M991 183 c0 -4 4 -17 9 -28 8 -19 9 -19 9 2 1 12 -3 25 -9 28 -5 3
-10 3 -9 -2z"/>
<path d="M724 165 c-4 -8 -3 -22 0 -31 7 -17 28 -15 32 4 1 7 0 8 -3 2 -10
-20 -23 -9 -19 15 5 28 -1 34 -10 10z"/>
<path d="M774 165 c-4 -8 -3 -22 0 -31 7 -17 28 -15 32 4 1 7 0 8 -3 2 -6 -13
-23 -13 -23 -1 0 5 7 17 16 25 14 15 14 16 -1 16 -8 0 -18 -7 -21 -15z"/>
<path d="M890 170 c12 -7 12 -12 2 -22 -15 -15 -15 -28 1 -28 6 0 13 14 14 30
2 23 -2 30 -15 30 -14 0 -15 -2 -2 -10z"/>
<path d="M1670 932 c0 -4 10 -12 23 -17 21 -10 22 -15 22 -125 0 -110 -1 -115
-22 -125 -45 -19 -21 -25 106 -25 144 0 141 -2 141 76 0 54 -13 57 -26 7 -11
-45 -40 -63 -107 -63 l-48 0 3 128 c3 123 4 127 26 130 50 7 18 22 -48 22 -38
0 -70 -3 -70 -8z"/>
<path d="M2055 843 c-59 -156 -73 -183 -89 -183 -9 0 -16 -4 -16 -10 0 -5 24
-10 54 -10 30 0 58 5 61 10 3 6 -3 10 -14 10 -28 0 -35 16 -21 51 12 27 16 29
71 29 55 0 60 -2 70 -27 13 -34 5 -53 -21 -53 -12 0 -18 -4 -15 -10 7 -11 118
-14 128 -3 4 3 -3 11 -15 17 -15 8 -34 42 -60 111 -53 140 -66 165 -82 165 -8
0 -28 -38 -51 -97z m72 -18 c11 -30 18 -57 15 -60 -3 -3 -22 -5 -42 -5 -20 0
-39 2 -42 5 -7 7 33 115 42 115 4 0 16 -25 27 -55z"/>
<path d="M2280 932 c0 -4 10 -12 23 -17 21 -10 22 -15 22 -125 0 -110 -1 -115
-22 -125 -46 -20 -20 -26 110 -23 l132 3 3 58 c3 65 -10 76 -24 20 -11 -45
-40 -63 -107 -63 l-48 0 3 128 c3 123 4 127 26 130 50 7 18 22 -48 22 -38 0
-70 -3 -70 -8z"/>
<path d="M2580 931 c0 -5 11 -12 25 -15 l26 -7 -3 -122 c-3 -118 -4 -122 -26
-125 -44 -6 -10 -22 48 -22 58 0 92 16 48 22 -22 3 -23 7 -26 125 l-3 122 26
7 c47 12 25 24 -45 24 -38 0 -70 -4 -70 -9z"/>
<path d="M2750 880 c0 -33 4 -60 10 -60 6 0 10 11 10 25 0 31 41 75 70 75 20
0 21 -4 18 -127 -3 -124 -4 -128 -26 -131 -12 -2 -20 -8 -17 -13 8 -12 132
-12 140 1 3 6 -2 10 -12 10 -37 0 -43 20 -43 137 0 125 5 136 57 111 20 -9 31
-24 37 -51 14 -55 26 -45 26 23 l0 60 -135 0 -135 0 0 -60z"/>
<path d="M3045 931 c-3 -5 5 -11 17 -13 23 -3 23 -6 23 -128 0 -122 0 -125
-23 -128 -12 -2 -20 -8 -17 -13 8 -12 132 -12 140 1 3 6 -3 10 -13 10 -30 0
-44 24 -40 72 l3 43 66 5 c79 6 109 27 109 75 0 43 -18 64 -65 75 -52 12 -192
13 -200 1z m211 -32 c8 -6 14 -24 14 -40 0 -38 -33 -59 -92 -59 l-48 0 0 53
c0 30 3 57 8 61 10 11 101 -1 118 -15z"/>
<path d="M3335 931 c-3 -5 5 -11 17 -13 22 -3 23 -8 28 -116 5 -109 6 -115 33
-138 38 -32 122 -34 155 -4 27 26 31 44 35 155 2 83 4 91 25 100 12 5 22 13
22 17 0 12 -118 10 -125 -2 -3 -5 3 -10 13 -10 37 0 44 -24 40 -126 -3 -86 -5
-98 -27 -115 -35 -28 -85 -25 -110 7 -18 23 -21 41 -21 118 0 95 8 116 43 116
10 0 15 5 12 10 -8 13 -132 13 -140 1z"/>
<path d="M3676 932 c-3 -6 4 -12 16 -14 23 -3 23 -6 23 -128 0 -122 0 -125
-23 -128 -12 -2 -20 -8 -17 -13 8 -12 132 -12 140 1 3 6 -3 10 -13 10 -31 0
-43 24 -40 77 l3 48 42 3 c54 4 83 -22 83 -74 0 -19 5 -44 10 -55 12 -21 50
-25 68 -7 15 15 16 58 2 58 -5 0 -10 -12 -10 -26 0 -44 -25 -21 -28 27 -2 34
-9 49 -30 66 -21 18 -23 23 -9 23 53 0 77 87 31 117 -31 20 -237 33 -248 15z
m204 -25 c15 -8 26 -23 28 -39 4 -37 -30 -58 -95 -58 l-53 0 0 48 c0 27 3 52
7 55 11 12 87 7 113 -6z"/>
<path d="M1760 585 c7 -9 15 -13 17 -11 7 7 -7 26 -19 26 -6 0 -6 -6 2 -15z"/>
<path d="M2315 539 c0 -32 3 -59 8 -59 4 0 7 24 7 54 0 30 -3 57 -7 59 -5 3
-8 -21 -8 -54z"/>
<path d="M2380 596 c0 -2 7 -9 15 -16 9 -7 15 -8 15 -2 0 5 -7 12 -15 16 -8 3
-15 4 -15 2z"/>
<path d="M2522 580 c14 -22 24 -19 15 5 -4 8 -11 15 -17 15 -6 0 -6 -7 2 -20z"/>
<path d="M2781 540 c-1 -33 2 -60 7 -60 5 0 7 20 4 45 -2 25 0 45 5 45 5 0 24
-21 43 -47 18 -27 35 -43 37 -37 2 7 -10 27 -27 45 -16 18 -30 37 -30 41 0 4
-8 12 -19 17 -16 9 -18 5 -20 -49z"/>
<path d="M2942 593 c-36 -14 -33 -93 4 -107 17 -6 17 -6 1 12 -22 24 -22 60 0
84 17 19 16 20 -5 11z"/>
<path d="M3702 580 c14 -22 24 -19 15 5 -4 8 -11 15 -17 15 -6 0 -6 -7 2 -20z"/>
<path d="M3760 580 c-31 -31 -24 -72 14 -92 20 -11 20 -10 4 9 -23 25 -23 61
-1 85 22 24 8 23 -17 -2z"/>
<path d="M3970 582 c6 -13 14 -21 18 -18 3 4 -2 14 -12 24 -18 16 -18 16 -6
-6z"/>
<path d="M1688 536 c-2 -34 1 -56 7 -56 10 0 11 97 2 107 -3 2 -7 -21 -9 -51z"/>
<path d="M1836 562 c16 -15 39 -41 51 -57 17 -23 22 -26 22 -12 1 9 -3 17 -8
17 -4 0 -20 18 -35 40 -14 22 -33 40 -42 40 -12 0 -8 -8 12 -28z"/>
<path d="M1900 560 c0 -16 2 -30 4 -30 2 0 6 14 8 30 3 17 1 30 -4 30 -4 0 -8
-13 -8 -30z"/>
<path d="M1962 578 c-17 -17 -15 -64 4 -82 23 -24 27 -19 7 10 -13 21 -15 32
-6 55 13 32 12 34 -5 17z"/>
<path d="M2036 575 c4 -8 8 -15 10 -15 2 0 4 7 4 15 0 8 -4 15 -10 15 -5 0 -7
-7 -4 -15z"/>
<path d="M2100 535 c0 -30 5 -55 10 -55 6 0 10 25 10 55 0 30 -4 55 -10 55 -5
0 -10 -25 -10 -55z"/>
<path d="M2168 535 c-1 -30 0 -55 4 -55 4 0 8 21 10 48 l3 47 35 -48 c29 -41
35 -45 41 -30 10 25 11 93 1 93 -4 0 -6 -18 -4 -40 2 -22 0 -40 -4 -40 -5 0
-22 18 -37 40 -16 22 -32 40 -37 40 -4 0 -10 -25 -12 -55z"/>
<path d="M2445 535 c0 -30 5 -55 10 -55 9 0 10 14 6 88 -2 47 -16 19 -16 -33z"/>
<path d="M2578 535 c-2 -32 1 -55 7 -55 6 0 10 25 10 55 0 71 -12 71 -17 0z"/>
<path d="M2647 571 c3 -10 0 -22 -6 -25 -7 -4 -7 -16 1 -36 13 -40 29 -38 18
2 -6 21 -6 36 1 44 11 13 4 34 -11 34 -4 0 -6 -8 -3 -19z"/>
<path d="M2715 535 c0 -30 5 -55 10 -55 6 0 9 23 7 55 -5 71 -17 71 -17 0z"/>
<path d="M2873 555 c0 -22 2 -30 4 -17 2 12 2 30 0 40 -3 9 -5 -1 -4 -23z"/>
<path d="M3000 581 c0 -6 5 -13 10 -16 6 -3 10 1 10 9 0 9 -4 16 -10 16 -5 0
-10 -4 -10 -9z"/>
<path d="M3115 566 c-18 -27 -7 -69 20 -80 26 -10 27 -8 5 14 -22 22 -25 42
-10 71 15 27 4 24 -15 -5z"/>
<path d="M3196 575 c4 -8 8 -15 10 -15 2 0 4 7 4 15 0 8 -4 15 -10 15 -5 0 -7
-7 -4 -15z"/>
<path d="M3242 578 c-17 -17 -15 -63 3 -78 14 -11 14 -10 6 14 -7 17 -7 35 -1
51 11 28 9 30 -8 13z"/>
<path d="M3318 578 c17 -17 15 -58 -5 -81 -17 -19 -17 -20 4 -8 13 6 25 22 29
35 6 27 -10 66 -28 66 -9 0 -9 -3 0 -12z"/>
<path d="M3385 535 c0 -30 3 -55 8 -55 4 0 7 25 7 55 0 30 -3 55 -7 55 -5 0
-8 -25 -8 -55z"/>
<path d="M3505 535 c0 -30 3 -55 8 -55 4 0 7 25 7 55 0 30 -3 55 -7 55 -5 0
-8 -25 -8 -55z"/>
<path d="M3625 535 c0 -30 3 -55 8 -55 4 0 7 25 7 55 0 30 -3 55 -7 55 -5 0
-8 -25 -8 -55z"/>
<path d="M3820 586 c0 -2 7 -9 15 -16 12 -10 15 -10 15 4 0 9 -7 16 -15 16 -8
0 -15 -2 -15 -4z"/>
<path d="M3890 535 c0 -30 5 -55 10 -55 6 0 10 25 10 55 0 30 -4 55 -10 55 -5
0 -10 -25 -10 -55z"/>
<path d="M1819 525 c-6 -40 -4 -53 7 -43 3 3 4 23 2 44 l-3 39 -6 -40z"/>
<path d="M2354 549 c-3 -6 -1 -16 5 -22 8 -8 11 -5 11 11 0 24 -5 28 -16 11z"/>
<path d="M3667 545 c-4 -8 -2 -17 3 -20 6 -4 10 3 10 14 0 25 -6 27 -13 6z"/>
<path d="M3934 549 c-3 -6 -1 -16 5 -22 8 -8 11 -5 11 11 0 24 -5 28 -16 11z"/>
<path d="M1731 534 c0 -11 3 -14 6 -6 3 7 2 16 -1 19 -3 4 -6 -2 -5 -13z"/>
<path d="M2491 534 c0 -11 3 -14 6 -6 3 7 2 16 -1 19 -3 4 -6 -2 -5 -13z"/>
<path d="M2035 515 c0 -14 3 -25 6 -25 4 0 9 11 11 25 3 15 1 25 -6 25 -6 0
-11 -11 -11 -25z"/>
<path d="M3005 515 c0 -14 3 -25 6 -25 4 0 9 11 11 25 3 15 1 25 -6 25 -6 0
-11 -11 -11 -25z"/>
<path d="M3830 515 c0 -14 4 -25 9 -25 5 0 11 11 13 25 4 17 1 25 -8 25 -8 0
-14 -11 -14 -25z"/>
<path d="M3196 503 c-6 -14 -5 -15 5 -6 7 7 10 15 7 18 -3 3 -9 -2 -12 -12z"/>
<path d="M3970 501 c-7 -15 -7 -21 0 -21 12 0 25 28 17 36 -3 3 -10 -4 -17
-15z"/>
<path d="M1760 495 c-10 -12 -10 -15 4 -15 9 0 16 7 16 15 0 8 -2 15 -4 15 -2
0 -9 -7 -16 -15z"/>
<path d="M2390 495 c-8 -9 -8 -15 -2 -15 12 0 26 19 19 26 -2 2 -10 -2 -17
-11z"/>
<path d="M2520 495 c-10 -12 -10 -15 4 -15 9 0 16 7 16 15 0 8 -2 15 -4 15 -2
0 -9 -7 -16 -15z"/>
<path d="M3452 495 c-11 -12 -10 -15 3 -15 8 0 15 7 15 15 0 18 -2 18 -18 0z"/>
<path d="M3576 495 c-3 -8 -1 -15 4 -15 6 0 10 7 10 15 0 8 -2 15 -4 15 -2 0
-6 -7 -10 -15z"/>
<path d="M3700 495 c-8 -9 -8 -15 -2 -15 12 0 26 19 19 26 -2 2 -10 -2 -17
-11z"/>
<path d="M1677 433 c-4 -3 -7 -10 -7 -15 0 -4 520 -8 1155 -8 1020 0 1155 2
1155 15 0 13 -134 15 -1148 15 -632 0 -1152 -3 -1155 -7z"/>
<path d="M1973 320 c0 -30 2 -43 4 -27 2 15 2 39 0 55 -2 15 -4 2 -4 -28z"/>
<path d="M2299 358 c-4 -68 -3 -88 4 -88 4 0 7 23 7 50 0 28 -2 50 -5 50 -3 0
-5 -6 -6 -12z"/>
<path d="M2730 322 c0 -29 3 -52 8 -52 9 0 7 88 -2 97 -3 4 -6 -17 -6 -45z"/>
<path d="M2810 320 c0 -29 3 -51 6 -48 7 8 8 88 0 95 -3 4 -6 -18 -6 -47z"/>
<path d="M1823 315 c0 -27 2 -38 4 -22 2 15 2 37 0 50 -2 12 -4 0 -4 -28z"/>
<path d="M1873 315 c0 -27 2 -38 4 -22 2 15 2 37 0 50 -2 12 -4 0 -4 -28z"/>
<path d="M2578 314 c-2 -25 0 -48 4 -50 5 -3 8 18 8 45 0 64 -7 66 -12 5z"/>
<path d="M3282 319 c-2 -35 2 -48 14 -53 13 -5 14 -3 6 6 -6 7 -12 31 -15 53
l-4 40 -1 -46z"/>
<path d="M3957 335 c3 -16 9 -37 14 -45 15 -27 10 11 -6 45 l-14 30 6 -30z"/>
<path d="M1750 346 c0 -2 9 -23 20 -47 22 -50 27 -36 6 16 -13 30 -26 46 -26
31z"/>
<path d="M2090 307 c0 -20 4 -37 8 -37 9 0 7 58 -2 67 -3 4 -6 -10 -6 -30z"/>
<path d="M2137 308 c8 -46 13 -48 13 -5 0 21 -4 37 -10 37 -5 0 -7 -14 -3 -32z"/>
<path d="M2380 305 c0 -19 3 -35 8 -35 4 0 7 16 7 35 0 19 -3 35 -7 35 -5 0
-8 -16 -8 -35z"/>
<path d="M2472 318 c7 -15 15 -23 17 -17 2 6 -4 18 -13 27 -15 15 -15 15 -4
-10z"/>
<path d="M2771 333 c0 -4 4 -17 9 -28 8 -19 9 -19 9 2 1 12 -3 25 -9 28 -5 3
-10 3 -9 -2z"/>
<path d="M2857 308 c8 -44 13 -48 13 -10 0 17 -4 34 -10 37 -6 4 -7 -6 -3 -27z"/>
<path d="M2900 307 c0 -20 4 -38 9 -42 6 -3 7 10 4 32 -8 50 -13 55 -13 10z"/>
<path d="M2944 304 c0 -19 4 -34 8 -34 4 0 8 13 8 29 0 17 -4 32 -8 35 -4 2
-8 -11 -8 -30z"/>
<path d="M2980 338 c0 -16 23 -68 31 -68 5 0 3 12 -3 28 -12 27 -28 51 -28 40z"/>
<path d="M3189 302 c5 -34 6 -35 9 -8 2 16 0 32 -5 37 -5 5 -7 -7 -4 -29z"/>
<path d="M3423 305 c0 -22 2 -30 4 -17 2 12 2 30 0 40 -3 9 -5 -1 -4 -23z"/>
<path d="M3500 335 c0 -15 32 -66 38 -61 3 4 0 12 -6 18 -7 7 -12 20 -12 30 0
10 -4 18 -10 18 -5 0 -10 -2 -10 -5z"/>
<path d="M3820 311 c0 -17 4 -32 8 -35 5 -3 9 10 9 29 0 19 -4 35 -9 35 -4 0
-8 -13 -8 -29z"/>
<path d="M3875 323 c4 -10 10 -26 12 -35 3 -10 9 -18 14 -18 12 0 12 2 -7 38
-16 34 -31 45 -19 15z"/>
<path d="M1920 302 c0 -18 4 -32 8 -32 9 0 8 47 -1 57 -4 3 -7 -8 -7 -25z"/>
<path d="M2012 300 c0 -19 2 -27 5 -17 2 9 2 25 0 35 -3 9 -5 1 -5 -18z"/>
<path d="M2257 323 c-9 -9 -9 -41 1 -46 4 -3 7 8 7 24 0 16 0 29 -1 29 0 0 -4
-3 -7 -7z"/>
<path d="M2630 300 c0 -39 15 -39 16 0 1 17 -3 30 -7 30 -5 0 -9 -13 -9 -30z"/>
<path d="M2692 300 c0 -19 2 -27 5 -17 2 9 2 25 0 35 -3 9 -5 1 -5 -18z"/>
<path d="M3102 300 c0 -19 2 -27 5 -17 2 9 2 25 0 35 -3 9 -5 1 -5 -18z"/>
<path d="M3140 300 c0 -39 15 -39 16 0 1 17 -3 30 -7 30 -5 0 -9 -13 -9 -30z"/>
<path d="M3382 300 c0 -19 2 -27 5 -17 2 9 2 25 0 35 -3 9 -5 1 -5 -18z"/>
<path d="M3460 300 c0 -16 4 -30 8 -30 5 0 7 14 4 30 -2 17 -6 30 -8 30 -2 0
-4 -13 -4 -30z"/>
<path d="M3663 295 c0 -22 2 -30 4 -17 2 12 2 30 0 40 -3 9 -5 -1 -4 -23z"/>
<path d="M3711 321 c7 -19 49 -47 49 -32 0 6 -4 11 -9 11 -5 0 -17 8 -27 17
-12 12 -16 13 -13 4z"/>
<path d="M3782 300 c0 -19 2 -27 5 -17 2 9 2 25 0 35 -3 9 -5 1 -5 -18z"/>
<path d="M2180 301 c0 -11 4 -22 9 -25 4 -3 6 6 3 19 -5 30 -12 33 -12 6z"/>
<path d="M3578 309 c-3 -9 -2 -22 2 -30 13 -19 18 -8 10 21 -4 19 -7 21 -12 9z"/>
<path d="M1671 289 c-1 -14 6 -34 15 -45 8 -10 12 -13 8 -5 -4 8 -11 28 -15
45 -6 29 -7 29 -8 5z"/>
<path d="M2420 298 c0 -8 7 -21 15 -28 19 -16 19 -1 0 24 -12 16 -15 17 -15 4z"/>
<path d="M3056 291 c-4 -7 -5 -15 -2 -18 9 -9 19 4 14 18 -4 11 -6 11 -12 0z"/>
<path d="M1710 269 c0 -5 5 -7 10 -4 6 3 10 8 10 11 0 2 -4 4 -10 4 -5 0 -10
-5 -10 -11z"/>
</g>
</svg>
